# xmcd
#
# Track frame offsets:
#	150
#	17300
#	36538
#	47733
#	66180
#	84385
#	99658
#	117585
#	133320
#	152713
#	174308
#	189910
#	206760
#	222320
#	238303
#	256100
#	275793
#
# Disc length: 3895 seconds
#
# Revision: 1
# Processed by: cddbd v1.4PL0 Copyright (c) Steve Scherf et al.
# Submitted via: EasyCDDAExtractor 5.0.6
#
DISCID=fb0f3511
DTITLE=Ana Gabriel - 35 Grandes Exitos
DYEAR=1900
DGENRE=
TTITLE0=Hasta Que Te Conoci
TTITLE1=Cosas Del Amor
TTITLE2=No Siempre Se Gana
TTITLE3=Tierra De Nadie
TTITLE4=Tu Y Yo
TTITLE5=Llevame
TTITLE6=Hice Bien Quererte
TTITLE7=Hechizo
TTITLE8=Evidencias
TTITLE9=Mi Talisman
TTITLE10=Te Amo
TTITLE11=Silueta
TTITLE12=Recuerdos
TTITLE13=Noche A Noche
TTITLE14=Por Culpa Del Amor
TTITLE15=No Digas No
TTITLE16=Amigo Mio
EXTD=
EXTT0=
EXTT1=
EXTT2=
EXTT3=
EXTT4=
EXTT5=
EXTT6=
EXTT7=
EXTT8=
EXTT9=
EXTT10=
EXTT11=
EXTT12=
EXTT13=
EXTT14=
EXTT15=
EXTT16=
PLAYORDER=
